<svg xmlns="http://www.w3.org/2000/svg" viewBox="0 0 48 48" width="48" height="48">
	<style>
		tspan { white-space:pre }
		.shp0 { fill: #d33838 } 
	</style>
	<path id="Camera" class="shp0" d="M46.5 48L1.5 48C0.67 48 0 47.33 0 46.5L0 10.5C0 9.67 0.67 9 1.5 9L3 9L3 6L9 6L9 9L15 9L15 1.5C15 0.67 15.67 0 16.5 0L31.5 0C32.33 0 33 0.67 33 1.5L33 9L46.5 9C47.33 9 48 9.67 48 10.5L48 46.5C48 47.33 47.33 48 46.5 48ZM30 3L18 3L18 9L30 9L30 3ZM45 12L31.5 12L16.5 12L3 12L3 45L45 45L45 12ZM24 19.5C28.97 19.5 33 23.53 33 28.5C33 33.47 28.97 37.5 24 37.5C19.03 37.5 15 33.47 15 28.5C15 23.53 19.03 19.5 24 19.5ZM24 34.5C27.31 34.5 30 31.81 30 28.5C30 25.19 27.31 22.5 24 22.5C20.69 22.5 18 25.19 18 28.5C18 31.81 20.69 34.5 24 34.5Z" />
</svg>