<svg xmlns="http://www.w3.org/2000/svg" viewBox="0 0 36 48" width="36" height="48">
	<style>
		tspan { white-space:pre }
		.shp0 { fill: #d33838 } 
	</style>
	<path id="iPhone" fill-rule="evenodd" class="shp0" d="M1.5 0L34.5 0C35.33 0 36 0.67 36 1.5L36 46.5C36 47.33 35.33 48 34.5 48L1.5 48C0.67 48 0 47.33 0 46.5L0 1.5C0 0.67 0.67 0 1.5 0ZM3 45L33 45L33 3L3 3L3 45ZM6 6L30 6L30 33L6 33L6 6ZM16.5 36L19.5 36C20.33 36 21 36.67 21 37.5L21 40.5C21 41.33 20.33 42 19.5 42L16.5 42C15.67 42 15 41.33 15 40.5L15 37.5C15 36.67 15.67 36 16.5 36ZM9 30L27 30L27 9L9 9L9 30Z" />
</svg>